<svg width="19" height="20" viewBox="0 0 19 20" fill="none" xmlns="http://www.w3.org/2000/svg">
<path d="M10.5318 9.3061L7.53181 9.29522C7.13399 9.29377 6.753 9.14489 6.47265 8.88132C6.1923 8.61775 6.03555 8.26109 6.0369 7.88978C6.03825 7.51848 6.19758 7.16296 6.47983 6.90144C6.76209 6.63991 7.14415 6.49379 7.54197 6.49524L11.2919 6.50884C11.4909 6.50956 11.6814 6.584 11.8215 6.71579C11.9617 6.84757 12.0401 7.02591 12.0394 7.21156C12.0387 7.39721 12.1171 7.57554 12.2573 7.70732C12.3974 7.83911 12.5879 7.91355 12.7869 7.91427C12.9858 7.91499 13.1768 7.84194 13.3179 7.71117C13.4591 7.58041 13.5387 7.40265 13.5394 7.217C13.5414 6.66005 13.3063 6.12505 12.8858 5.72969C12.4652 5.33434 11.8938 5.11101 11.297 5.10885L9.79703 5.10341L9.80211 3.70342C9.80279 3.51777 9.72442 3.33943 9.58424 3.20765C9.44407 3.07586 9.25357 3.00142 9.05466 3.0007C8.85575 2.99998 8.66472 3.07304 8.52359 3.2038C8.38246 3.33456 8.3028 3.51232 8.30212 3.69797L8.29704 5.09797L7.54705 5.09524C6.75141 5.09236 5.98728 5.38459 5.42277 5.90764C4.85826 6.4307 4.53961 7.14174 4.53691 7.88434C4.53422 8.62694 4.8477 9.34028 5.4084 9.86742C5.9691 10.3946 6.73109 10.6923 7.52673 10.6952L10.5267 10.7061C10.9245 10.7075 11.3055 10.8564 11.5859 11.12C11.8662 11.3836 12.023 11.7402 12.0216 12.1115C12.0203 12.4828 11.861 12.8383 11.5787 13.0999C11.2964 13.3614 10.9144 13.5075 10.5166 13.5061L6.76658 13.4925C6.56767 13.4917 6.37717 13.4173 6.237 13.2855C6.09682 13.1537 6.01845 12.9754 6.01913 12.7898C6.0198 12.6041 5.94143 12.4258 5.80125 12.294C5.66108 12.1622 5.47058 12.0878 5.27167 12.087C5.07276 12.0863 4.88173 12.1594 4.7406 12.2901C4.59947 12.4209 4.51981 12.5987 4.51914 12.7843C4.51712 13.3413 4.75223 13.8763 5.17275 14.2716C5.59328 14.667 6.16477 14.8903 6.7615 14.8925L8.26149 14.8979L8.25641 16.2979C8.25574 16.4835 8.33411 16.6619 8.47429 16.7937C8.61446 16.9254 8.80496 16.9999 9.00387 17.0006C9.20278 17.0013 9.39381 16.9283 9.53494 16.7975C9.67607 16.6667 9.75573 16.489 9.7564 16.3033L9.76148 14.9033L10.5115 14.9061C11.3071 14.9089 12.0712 14.6167 12.6358 14.0937C13.2003 13.5706 13.5189 12.8596 13.5216 12.117C13.5243 11.3744 13.2108 10.661 12.6501 10.1339C12.0894 9.60675 11.3274 9.30899 10.5318 9.3061Z" fill="#8C8C8C"/>
</svg>
