<svg width="161" height="29" viewBox="0 0 161 29" fill="none" xmlns="http://www.w3.org/2000/svg">
<path fill-rule="evenodd" clip-rule="evenodd" d="M120.443 5.27732C120.377 5.35414 120.327 5.97419 120.311 6.91422L120.284 8.42732L119.495 8.45385L118.706 8.48093L118.733 9.6514L118.759 10.8219L119.522 10.8677L120.284 10.9142L120.341 13.8613C120.399 16.8898 120.431 17.1606 120.82 17.9193C121.658 19.5562 124.231 20.2376 126.573 19.4424C127.662 19.0721 127.674 19.0517 127.381 17.9812C126.991 16.5505 126.91 16.3714 126.684 16.4399C124.386 17.1373 124.259 16.9688 124.247 13.212C124.238 10.6351 124.071 10.8677 125.93 10.8677H127.391L127.364 9.64753L127.337 8.42732L125.837 8.4019C124.063 8.37151 124.249 8.57985 124.215 6.58485L124.192 5.20327L122.371 5.1784C120.938 5.15906 120.527 5.18006 120.443 5.27732ZM82.4924 7.82993C79.1074 8.39858 77.2202 11.9785 78.293 15.7956C79.3316 19.4904 83.9707 21.0168 86.8136 18.5991L87.2579 18.2205V20.8461C87.2579 22.2901 87.2842 23.5368 87.3157 23.6169C87.366 23.7429 87.6285 23.7628 89.2698 23.7628H91.1656V15.8414V7.92056H89.2698C87.1115 7.92056 87.2579 7.85866 87.2579 8.7694V9.32756L86.7787 8.89429C85.7384 7.95372 84.1309 7.55472 82.4924 7.82993ZM111.563 7.79566C107.053 8.16482 104.48 12.3936 106.335 16.3885C107.94 19.8425 113.438 20.8787 116.82 18.3636C119.576 16.3139 119.751 11.7984 117.165 9.43477C115.85 8.23335 113.745 7.61716 111.563 7.79566ZM132.604 7.82882C126.871 8.50966 125.237 16.2625 130.259 18.9572C132.777 20.3083 136.998 19.7955 138.752 17.9254C139.003 17.6574 138.985 17.6275 138.025 16.7024C136.995 15.711 137.072 15.7342 136.363 16.1929C134.45 17.4319 132.194 17.0091 131.442 15.27C131.208 14.7312 131.136 14.7406 135.638 14.7141L139.728 14.6903L139.714 13.7C139.655 9.65472 136.836 7.32648 132.604 7.82882ZM143.347 7.86585C141.199 8.34166 140.034 9.59116 140.033 11.4204C140.031 13.2921 140.828 14.0586 143.715 14.9627C145.876 15.6392 146.37 15.9497 146.218 16.5344C145.977 17.4623 143.402 17.2832 141.459 16.2039C140.582 15.716 140.613 15.7022 140.015 16.8533C139.349 18.1359 139.348 18.1177 140.133 18.5687C143.501 20.5023 148.459 19.9524 149.607 17.5181C150.673 15.2551 149.521 13.4911 146.353 12.5328C144.054 11.8376 143.589 11.5945 143.589 11.0899C143.589 10.4931 144.323 10.2134 145.422 10.3914C146.361 10.5433 146.537 10.5947 147.449 10.9805C148.634 11.4817 148.597 11.4762 148.755 11.175C148.831 11.0313 149.114 10.5118 149.385 10.0206L149.879 9.12695L149.569 8.907C148.317 8.01782 145.094 7.47845 143.347 7.86585ZM92.788 11.9039C92.7898 16.2786 92.8275 16.672 93.3422 17.6491C94.6364 20.1044 98.7888 20.4946 100.59 18.3294C100.996 17.8403 101.079 17.9166 101.079 18.7847C101.079 19.6739 100.947 19.6181 103.032 19.6181C103.942 19.6181 104.752 19.5927 104.835 19.5623C104.971 19.512 104.986 18.9107 104.986 13.7132V7.92056H103.039H101.091L101.06 11.2596L101.029 14.598L100.77 15.118C99.9904 16.6792 97.8572 16.8925 97.0063 15.4938L96.7415 15.0589L96.7129 11.4895L96.6837 7.92056H94.7347H92.7863L92.788 11.9039ZM11.7188 13.7691C11.7188 16.9605 11.7308 18.2531 11.7451 16.6411C11.7599 15.0291 11.7599 12.4179 11.7451 10.8385C11.7308 9.25903 11.7188 10.5776 11.7188 13.7691ZM134.648 10.5798C135.369 10.8782 135.964 11.6945 135.964 12.3864V12.713L133.605 12.6887L131.246 12.6638L131.264 12.4085C131.364 11.0026 133.232 9.99348 134.648 10.5798ZM85.6629 10.9595C87.7863 11.9244 87.851 15.6099 85.7613 16.5875C83.8163 17.4977 81.7987 15.8961 81.9388 13.5541C82.0635 11.4729 83.9301 10.1725 85.6629 10.9595ZM113.518 11.0109C114.869 11.6282 115.43 13.3678 114.839 15.1048C114.083 17.3286 110.667 17.3247 109.907 15.0992C108.97 12.3554 111.124 9.91611 113.518 11.0109ZM40.7637 24.1077C41.2194 24.1243 41.9915 24.1243 42.4793 24.1077C42.9666 24.0911 42.5937 24.0773 41.6501 24.0773C40.7065 24.0767 40.3073 24.0906 40.7637 24.1077Z" fill="#FBF6F8"/>
<path fill-rule="evenodd" clip-rule="evenodd" d="M12.9167 2.38312C12.9167 2.42733 12.7989 2.48923 12.6548 2.52017C12.151 2.62794 11.487 3.41986 11.487 3.9117C11.487 4.03383 11.4441 4.15928 11.3915 4.19078C11.3395 4.22228 11.2966 4.34662 11.2966 4.46709C11.2966 4.58757 11.3395 4.71191 11.3915 4.74341C11.4441 4.77491 11.487 4.87438 11.487 4.96502C11.487 5.30267 11.9291 5.98683 12.1476 5.98683C12.2036 5.98683 12.2494 6.02828 12.2494 6.07912C12.2494 6.12941 12.3105 6.17086 12.3843 6.17086C12.4587 6.17086 12.5376 6.22281 12.5593 6.28636C12.6491 6.54775 14.8371 6.49525 15.1397 6.22446C15.2855 6.09349 15.4593 5.98683 15.5268 5.98683C15.5937 5.98683 15.7093 5.87299 15.7836 5.73373C15.8579 5.59446 15.9735 5.44636 16.0404 5.40546C16.1067 5.36457 16.1393 5.29659 16.113 5.25459C16.0861 5.21315 16.121 5.13302 16.1902 5.07775C16.5368 4.79978 16.3029 3.46296 15.862 3.19659C15.7624 3.13636 15.6807 3.01423 15.6807 2.92525C15.6807 2.82744 15.6092 2.76333 15.5005 2.76333C15.401 2.76333 15.2929 2.6948 15.2598 2.61191C15.2266 2.52846 15.174 2.48591 15.1419 2.51631C15.1099 2.54725 14.9944 2.51188 14.8846 2.43728C14.6633 2.28752 12.9167 2.23944 12.9167 2.38312ZM53.8506 3.43091C53.8254 3.49446 53.8162 7.19323 53.8294 11.6513L53.854 19.7568L55.8321 19.7816L57.8097 19.8065V11.5612V3.31596H55.8527C54.375 3.31596 53.8849 3.34415 53.8506 3.43091ZM4.38593 7.64473C4.35391 7.69557 4.15432 7.73702 3.94272 7.73702C3.73113 7.73702 3.44404 7.79394 3.3045 7.86357C3.16553 7.93375 2.94478 8.03157 2.81325 8.08186C2.326 8.2681 2.05093 8.41509 2.05093 8.48915C2.05093 8.53115 1.99317 8.56596 1.92283 8.56596C1.85248 8.56596 1.71695 8.64886 1.62201 8.74999C1.52708 8.85112 1.40241 8.93402 1.34465 8.93402C1.28689 8.93402 1.1788 9.06886 1.10446 9.23354C1.03011 9.39823 0.891146 9.59994 0.795069 9.68173C0.699564 9.76352 0.621216 9.89615 0.621216 9.97573C0.621216 10.0553 0.578324 10.1465 0.525711 10.1774C0.469094 10.2117 0.430778 10.7925 0.430778 11.611C0.430778 12.467 0.466807 12.987 0.525711 12.987C0.578324 12.987 0.621216 13.0699 0.621216 13.171C0.621216 13.2722 0.664107 13.3551 0.71672 13.3551C0.768762 13.3551 0.811653 13.4026 0.811653 13.4606C0.811653 13.6319 1.68492 14.3686 1.88794 14.3686C1.95428 14.3686 2.07094 14.4515 2.14643 14.5526C2.24651 14.6869 2.39292 14.7366 2.68572 14.7366C2.90704 14.7366 3.11463 14.7781 3.14723 14.8289C3.17926 14.8798 3.30679 14.9212 3.43089 14.9212C3.55441 14.9212 3.66993 14.9632 3.68766 15.0146C3.70539 15.066 3.87524 15.1274 4.06511 15.1506C4.25497 15.1743 4.51232 15.2296 4.63642 15.2744C4.76109 15.3186 5.16313 15.3633 5.5297 15.3733C5.89685 15.3838 6.2377 15.4313 6.28745 15.4788C6.3372 15.5269 6.49848 15.5656 6.64488 15.5656C6.79185 15.5656 6.91195 15.607 6.91195 15.6579C6.91195 15.7087 7.04062 15.7502 7.19789 15.7502C7.47354 15.7502 7.48384 15.7645 7.48384 16.1702C7.48384 16.4266 7.44666 16.5675 7.38833 16.5327C7.33629 16.5018 7.2934 16.5156 7.2934 16.5636C7.2934 16.6117 7.18417 16.6775 7.05092 16.7095C6.91767 16.7421 6.83475 16.809 6.8662 16.8582C6.89994 16.9113 6.73066 16.9472 6.44643 16.9472C6.18451 16.9472 5.94375 16.9886 5.91115 17.0395C5.87855 17.0903 5.7047 17.1318 5.52398 17.1318C5.34384 17.1318 5.1963 17.0903 5.1963 17.0395C5.1963 16.9886 4.98527 16.9472 4.72792 16.9472C4.47 16.9472 4.24468 16.9085 4.22752 16.8604C4.20979 16.8129 4.07769 16.7538 3.93415 16.7289C3.43317 16.6421 2.70631 16.3907 2.13328 16.1061C1.59914 15.8414 1.00266 15.8701 1.00266 16.1619C1.00266 16.2868 0.91688 16.5366 0.811653 16.7173C0.706998 16.8974 0.621216 17.1058 0.621216 17.1804C0.621216 17.255 0.578324 17.3158 0.525711 17.3158C0.473669 17.3158 0.430778 17.3987 0.430778 17.4998C0.430778 17.6015 0.387886 17.6844 0.335273 17.6844C0.28266 17.6844 0.239768 17.7673 0.239768 17.8684C0.239768 17.9695 0.196877 18.0524 0.144835 18.0524C-0.158836 18.0524 0.0567651 18.7841 0.406759 18.9416C0.603487 19.03 0.785919 19.1251 0.811653 19.1538C0.903155 19.2522 1.54195 19.434 1.7953 19.434C1.93598 19.434 2.05093 19.4755 2.05093 19.5263C2.05093 19.5771 2.1796 19.6186 2.33687 19.6186C2.49414 19.6186 2.62281 19.66 2.62281 19.7103C2.62281 19.7612 2.81554 19.8026 3.05173 19.8026C3.28792 19.8026 3.48064 19.8441 3.48064 19.8949C3.48064 19.9529 4.21151 19.9866 5.48224 19.9866C6.75297 19.9866 7.48384 19.9529 7.48384 19.8949C7.48384 19.8441 7.63138 19.8026 7.81152 19.8026C7.99224 19.8026 8.16609 19.7612 8.19869 19.7103C8.23129 19.66 8.34109 19.6186 8.44289 19.6186C8.54411 19.6186 8.62761 19.5771 8.62761 19.5263C8.62761 19.4755 8.77744 19.434 8.96101 19.434C9.14459 19.434 9.295 19.3926 9.295 19.3423C9.295 19.2914 9.36076 19.25 9.4414 19.25C9.52146 19.25 9.68273 19.166 9.79882 19.0638C10.7104 18.2597 10.9003 18.0629 11.0181 17.7993C11.0919 17.6346 11.1845 17.4998 11.2245 17.4998C11.264 17.4998 11.2966 17.4197 11.2966 17.3213C11.2966 17.2229 11.3395 17.1168 11.3915 17.0853C11.4459 17.0533 11.487 16.5935 11.487 16.021C11.487 15.4103 11.4493 15.013 11.3915 15.013C11.3395 15.013 11.2966 14.9328 11.2966 14.8345C11.2966 14.5675 10.8088 13.8535 10.5074 13.6789C10.3621 13.5949 10.1471 13.4335 10.0299 13.3203C9.72277 13.0235 9.21951 12.8024 8.85121 12.8024C8.67564 12.8024 8.5321 12.761 8.5321 12.7107C8.5321 12.6599 8.40629 12.6184 8.25188 12.6184C8.09804 12.6184 7.94535 12.577 7.91275 12.5261C7.88015 12.4758 7.51586 12.4344 7.10239 12.4344C6.68949 12.4344 6.32462 12.3929 6.2926 12.3421C6.26 12.2913 6.08615 12.2498 5.90543 12.2498C5.72529 12.2498 5.57774 12.2084 5.57774 12.1581C5.57774 12.1072 5.40618 12.0658 5.1963 12.0658C4.98641 12.0658 4.81485 12.0243 4.81485 11.9735C4.81485 11.9232 4.74737 11.8818 4.66501 11.8818C4.43855 11.8818 4.24296 11.6474 4.24296 11.375C4.24296 11.1025 4.43855 10.8682 4.66501 10.8682C4.74737 10.8682 4.81485 10.8268 4.81485 10.7765C4.81485 10.6626 7.69829 10.6494 7.93791 10.7621C8.02884 10.8047 8.19926 10.8876 8.3165 10.9461C8.43374 11.0047 8.63904 11.0528 8.77343 11.0528C8.90726 11.0528 9.10913 11.1357 9.22122 11.2368C9.33388 11.338 9.50773 11.4209 9.60781 11.4209C9.70904 11.4209 9.81141 11.3396 9.83886 11.2368C9.86631 11.1357 9.92693 11.0528 9.97325 11.0528C10.0196 11.0528 10.0573 10.9699 10.0573 10.8682C10.0573 10.7671 10.1002 10.6842 10.1528 10.6842C10.2049 10.6842 10.2478 10.6195 10.2478 10.5405C10.2478 10.4615 10.2906 10.4228 10.3433 10.4538C10.3987 10.4869 10.4388 10.3952 10.4388 10.2344C10.4388 10.0824 10.4817 9.93262 10.5337 9.90112C10.5863 9.87017 10.6292 9.76407 10.6292 9.6657C10.6292 9.56733 10.6847 9.48665 10.7527 9.48665C10.8271 9.48665 10.8854 9.35181 10.9003 9.14512C10.9129 8.95667 10.942 8.78536 10.9638 8.76436C11.0564 8.67483 10.7979 8.38138 10.6258 8.38138C10.5228 8.38138 10.4388 8.33994 10.4388 8.28965C10.4388 8.23881 10.3101 8.19736 10.1528 8.19736C9.99555 8.19736 9.86688 8.15591 9.86688 8.10507C9.86688 8.05478 9.74278 8.01333 9.59066 8.01333C9.43911 8.01333 9.29328 7.95807 9.26697 7.8912C9.23609 7.81328 9.02163 7.76133 8.67736 7.74807C8.37941 7.73646 8.02941 7.68783 7.89902 7.63975C7.57762 7.52149 4.462 7.52591 4.38593 7.64473ZM23.3616 7.63257C23.3331 7.67678 23.0946 7.74033 22.8315 7.77404C22.5684 7.80775 22.3528 7.87517 22.3528 7.92436C22.3528 7.97299 22.2671 8.01333 22.1624 8.01333C22.0572 8.01333 21.9714 8.05478 21.9714 8.10507C21.9714 8.15591 21.9154 8.19736 21.8467 8.19736C21.7781 8.19736 21.6294 8.28025 21.5167 8.38138C21.2154 8.65328 21.1279 8.61017 21.0953 8.17415L21.0661 7.78288H19.2075H17.3489V13.7695V19.7568L19.3264 19.7816L21.3046 19.8065V16.3045C21.3046 14.3349 21.3412 12.8024 21.3886 12.8024C21.435 12.8024 21.5431 12.5952 21.6294 12.3415C21.853 11.6806 22.5347 11.0528 23.0282 11.0528C23.2273 11.0528 23.4166 11.0114 23.4491 10.9605C23.4812 10.9097 23.6127 10.8682 23.7408 10.8682C23.8683 10.8682 23.973 10.9097 23.973 10.9605C23.973 11.0114 24.1686 11.0528 24.4076 11.0528C24.673 11.0528 24.8194 11.0887 24.7834 11.1445C24.7508 11.1954 24.7731 11.2368 24.832 11.2368C25.1299 11.2368 25.5766 12.0066 25.6069 12.5725C25.6195 12.8063 25.6646 13.0185 25.7069 13.0439C25.7493 13.0688 25.7842 14.6001 25.7842 16.4465V19.8026H27.7858H29.7873V16.2105C29.7873 13.8773 29.8205 12.6184 29.8829 12.6184C29.9349 12.6184 29.9778 12.5355 29.9778 12.4344C29.9778 12.3327 30.0207 12.2498 30.0733 12.2498C30.1259 12.2498 30.1688 12.1437 30.1688 12.0144C30.1688 11.8845 30.2008 11.795 30.2403 11.8154C30.3209 11.8569 30.6509 11.5496 30.5897 11.4905C30.568 11.4695 30.6572 11.3965 30.7881 11.3291C30.9191 11.2611 31.0266 11.1711 31.0266 11.1291C31.0266 11.0871 31.2171 11.0528 31.4498 11.0528C31.6826 11.0528 31.8993 11.0114 31.9319 10.9605C31.9645 10.9097 32.0955 10.8682 32.2236 10.8682C32.3517 10.8682 32.4563 10.9097 32.4563 10.9605C32.4563 11.0114 32.6142 11.0528 32.808 11.0528C33.1706 11.0528 33.886 11.6496 33.886 11.9525C33.886 12.0205 33.9289 12.0509 33.981 12.0199C34.0353 11.9873 34.0765 12.0647 34.0765 12.1984C34.0765 12.3283 34.1194 12.4344 34.172 12.4344C34.2338 12.4344 34.2669 13.7237 34.2669 16.1182V19.8026H36.2685H38.2701V15.612C38.2701 12.8793 38.2369 11.4209 38.1752 11.4209C38.1226 11.4209 38.0797 11.2551 38.0797 11.0528C38.0797 10.85 38.0477 10.6836 38.0082 10.6836C37.9098 10.6825 37.6982 10.2255 37.6982 10.015C37.6982 9.85249 37.2573 9.20038 37.1029 9.13352C37.0634 9.11694 37.0314 9.03736 37.0314 8.95723C37.0314 8.87709 37.0057 8.83565 36.9748 8.86604C36.9439 8.89588 36.7781 8.78038 36.6065 8.60962C36.4349 8.43886 36.1816 8.27196 36.0432 8.23825C35.9054 8.20454 35.7921 8.14044 35.7921 8.09512C35.7921 8.05036 35.7332 8.01333 35.6606 8.01333C35.5885 8.01333 35.4833 7.95917 35.4267 7.89341C35.3701 7.8271 35.1396 7.76299 34.9143 7.75028C34.6895 7.73812 34.4911 7.68838 34.4734 7.64031C34.4305 7.52094 31.722 7.52536 31.646 7.64473C31.6134 7.69557 31.4212 7.73702 31.2182 7.73702C31.0152 7.73702 30.7853 7.79891 30.7064 7.87517C30.628 7.95088 30.4959 8.01333 30.4136 8.01333C30.3312 8.01333 30.2637 8.05478 30.2637 8.10507C30.2637 8.15591 30.1539 8.19736 30.0201 8.19736C29.8857 8.19736 29.7999 8.23438 29.8285 8.2797C29.8577 8.32502 29.7742 8.38802 29.6438 8.41952C29.5128 8.45102 29.4059 8.53833 29.4059 8.61349C29.4059 8.68865 29.3201 8.74999 29.2155 8.74999C29.1108 8.74999 29.0233 8.78094 29.0216 8.81907C29.0022 9.26283 28.7322 9.22857 28.233 8.71849C27.9098 8.38802 27.6451 8.19736 27.5107 8.19736C27.3929 8.19736 27.3242 8.15591 27.3568 8.10507C27.3894 8.05478 27.3362 8.01333 27.2385 8.01333C27.1412 8.01333 27.0206 7.97575 26.9708 7.92988C26.6517 7.63699 23.5235 7.37946 23.3616 7.63257ZM45.6097 7.64031C45.6097 7.69336 45.4433 7.73702 45.2397 7.73702C45.0275 7.73702 44.8199 7.79559 44.7519 7.87517C44.6867 7.95088 44.5523 8.01333 44.4539 8.01333C44.3555 8.01333 44.2749 8.05478 44.2749 8.10507C44.2749 8.15591 44.1891 8.19736 44.0845 8.19736C43.9798 8.19736 43.894 8.23881 43.894 8.28965C43.894 8.33994 43.8294 8.38138 43.7511 8.38138C43.6721 8.38138 43.6012 8.43333 43.5938 8.49688C43.5858 8.55988 43.5538 8.42504 43.5223 8.19736L43.4651 7.78288L41.5819 7.75802L39.6993 7.73315L39.7233 15.8939L39.7479 24.0551L41.5865 24.0501C43.9415 24.0441 43.703 24.3403 43.703 21.4213C43.703 19.912 43.7373 19.066 43.7985 19.066C43.8511 19.066 43.894 19.1074 43.894 19.1577C43.894 19.2085 43.9581 19.25 44.037 19.25C44.1154 19.25 44.18 19.2914 44.18 19.3423C44.18 19.3926 44.2658 19.434 44.3704 19.434C44.4751 19.434 44.5608 19.4755 44.5608 19.5263C44.5608 19.5771 44.6466 19.6186 44.7519 19.6186C44.8565 19.6186 44.9423 19.66 44.9423 19.7103C44.9423 19.7612 45.0687 19.8026 45.2225 19.8026C45.3769 19.8026 45.5302 19.8457 45.5639 19.8982C45.6411 20.0181 48.6596 20.0065 48.6596 19.8866C48.6596 19.8402 48.8094 19.8026 48.993 19.8026C49.1765 19.8026 49.3269 19.7717 49.3275 19.7335C49.3287 19.6506 49.7902 19.434 49.9652 19.434C50.0332 19.434 50.0893 19.3926 50.0893 19.3423C50.0893 19.2914 50.175 19.25 50.2797 19.25C50.3849 19.25 50.4707 19.2085 50.4707 19.1577C50.4707 19.1074 50.5193 19.066 50.5788 19.066C50.6383 19.066 50.7864 18.9621 50.9076 18.8355C51.0294 18.709 51.1518 18.6051 51.1798 18.6051C51.2651 18.6051 52.1864 17.6921 52.1864 17.6076C52.1864 17.5639 52.2722 17.4534 52.3768 17.3616C52.4815 17.2699 52.5672 17.1185 52.5672 17.0251C52.5672 16.9317 52.6101 16.8554 52.6627 16.8554C52.7154 16.8554 52.7583 16.7333 52.7583 16.5846C52.7583 16.4354 52.8011 16.2879 52.8532 16.2564C52.9058 16.2254 52.9487 16.0983 52.9487 15.9745C52.9487 15.8513 52.9916 15.7502 53.0442 15.7502C53.0962 15.7502 53.1391 15.6076 53.1391 15.433C53.1391 15.2589 53.182 15.0903 53.2346 15.0594C53.2913 15.0257 53.3301 14.4576 53.3301 13.6668C53.3301 12.7997 53.2964 12.3509 53.2346 12.388C53.1769 12.4228 53.1391 12.2968 53.1391 12.0713C53.1391 11.8657 53.0962 11.6972 53.0442 11.6972C52.9916 11.6972 52.9487 11.5938 52.9487 11.4673C52.9487 11.3407 52.9058 11.2368 52.8532 11.2368C52.8011 11.2368 52.7583 11.1357 52.7583 11.0119C52.7583 10.8881 52.7154 10.7616 52.6627 10.7301C52.6101 10.6991 52.5672 10.6019 52.5672 10.5151C52.5672 10.4278 52.4815 10.2968 52.3768 10.2239C52.2722 10.1509 52.1864 10.0349 52.1864 9.96633C52.1864 9.81767 50.9099 8.56596 50.7584 8.56596C50.7006 8.56596 50.5611 8.48307 50.4484 8.38138C50.3358 8.28025 50.1665 8.19736 50.0715 8.19736C49.9766 8.19736 49.8988 8.15591 49.8988 8.10507C49.8988 8.05478 49.8182 8.01333 49.7198 8.01333C49.6215 8.01333 49.4945 7.95973 49.4385 7.89396C49.3824 7.82875 49.1754 7.76465 48.9787 7.75194C48.7819 7.73923 48.5761 7.69281 48.5212 7.64915C48.3719 7.53088 45.6097 7.5226 45.6097 7.64031ZM63.667 7.63975C63.6172 7.68728 63.3679 7.73702 63.1134 7.74917C62.8389 7.76299 62.6313 7.82102 62.6027 7.89286C62.5764 7.95917 62.4763 8.01333 62.3802 8.01333C62.2841 8.01333 62.1789 8.05478 62.1463 8.10507C62.1143 8.15591 61.9828 8.19736 61.8547 8.19736C61.7271 8.19736 61.6225 8.23881 61.6225 8.28965C61.6225 8.33994 61.5561 8.38138 61.4749 8.38138C61.3937 8.38138 61.2199 8.48583 61.0878 8.61349C60.9556 8.74115 60.8007 8.81796 60.7435 8.7837C60.6812 8.74667 60.6669 8.76436 60.7075 8.82791C60.7475 8.89036 60.7166 8.93402 60.6337 8.93402C60.5553 8.93402 60.4656 9.01249 60.4341 9.10865C60.4026 9.20425 60.2923 9.30428 60.1893 9.33025C60.0864 9.35623 60.0017 9.45459 60.0017 9.54854C60.0017 9.64249 59.9091 9.7602 59.7953 9.81049C59.6815 9.86023 59.5597 9.96357 59.5242 10.0393C59.4373 10.2261 59.2629 10.5449 58.9901 11.0169C58.8654 11.2335 58.7631 11.5165 58.7631 11.6458C58.7631 11.7756 58.7202 11.8818 58.6675 11.8818C58.6149 11.8818 58.572 12.0265 58.572 12.2039C58.572 12.3813 58.5274 12.5261 58.4725 12.5261C58.4079 12.5261 58.3782 12.9594 58.3873 13.7695C58.3947 14.4537 58.4394 15.013 58.4868 15.013C58.5337 15.013 58.572 15.1555 58.572 15.3302C58.572 15.5043 58.6092 15.6695 58.655 15.6966C58.7007 15.7236 58.7653 15.9126 58.7991 16.1166C58.8328 16.3199 58.9026 16.4868 58.9546 16.4868C59.0067 16.4868 59.049 16.5697 59.049 16.6709C59.049 16.7725 59.0867 16.8554 59.1331 16.8554C59.1799 16.8554 59.288 16.9986 59.3744 17.1743C59.4607 17.35 59.6249 17.5573 59.7398 17.6346C59.8548 17.7126 59.9194 17.7761 59.8834 17.7761C59.8468 17.7761 59.9549 17.9215 60.1236 18.0989C60.2917 18.2757 60.4678 18.421 60.5142 18.421C60.5611 18.421 60.6686 18.4968 60.7532 18.589C60.8378 18.6813 61.1324 18.8748 61.408 19.0184C61.6831 19.1616 61.9084 19.3141 61.9084 19.3566C61.9084 19.3992 62.0377 19.434 62.1955 19.434C62.3533 19.434 62.5787 19.4821 62.6959 19.5407C63.1534 19.7695 63.2466 19.8026 63.4262 19.8026C63.5286 19.8026 63.6389 19.8441 63.6715 19.8949C63.7482 20.0143 67.2698 20.0187 67.3939 19.8993C67.4437 19.8507 67.645 19.801 67.8417 19.7883C68.0385 19.7755 68.1992 19.7319 68.1992 19.6915C68.1992 19.6512 68.2821 19.6186 68.3839 19.6186C68.4857 19.6186 68.5955 19.5771 68.6281 19.5263C68.6601 19.4755 68.7916 19.434 68.9197 19.434C69.0473 19.434 69.1519 19.4003 69.1519 19.3589C69.1519 19.318 69.3343 19.1875 69.5574 19.0698C70.4278 18.61 71.0191 17.8303 70.6771 17.5921C70.5725 17.5191 70.4867 17.4064 70.4867 17.3418C70.4867 17.2765 70.4501 17.2235 70.4061 17.2235C70.2888 17.2235 69.9148 16.8952 69.9148 16.7924C69.9148 16.7444 69.7753 16.5758 69.6048 16.4183C69.4344 16.2608 69.212 16.0453 69.1096 15.9392C68.9317 15.754 68.2397 15.6822 68.3536 15.8607C68.3799 15.901 68.3375 15.9342 68.2603 15.9342C68.1826 15.9342 68.1054 15.9668 68.0876 16.0071C68.031 16.1376 67.3716 16.4868 67.1823 16.4868C67.0811 16.4868 66.957 16.5255 66.9073 16.573C66.8318 16.6454 66.3091 16.7493 65.8441 16.7853C65.7806 16.7897 65.7515 16.8284 65.7784 16.8704C65.8052 16.9129 65.7423 16.9472 65.6388 16.9472C65.5353 16.9472 65.4364 16.9052 65.4186 16.8538C65.4009 16.8024 65.2579 16.7438 65.1007 16.7234C64.5116 16.6476 63.8557 16.4343 63.6618 16.2564C63.552 16.1553 63.3541 15.9895 63.222 15.8883C63.0899 15.7866 62.9063 15.559 62.8131 15.3816C62.7205 15.2042 62.5964 15.029 62.5381 14.9914C62.4803 14.9544 64.4602 14.9234 66.9381 14.9223L71.4446 14.9212L71.5521 14.6676C71.6808 14.3647 71.7454 13.1489 71.6367 13.081C71.5944 13.0544 71.5332 12.7013 71.5012 12.2962C71.4686 11.8917 71.3988 11.5463 71.3457 11.5292C71.2925 11.512 71.249 11.4264 71.249 11.3385C71.249 11.2512 71.1632 11.0904 71.0586 10.9815C70.9534 10.8732 70.8676 10.6881 70.8676 10.5704C70.8676 10.4526 70.7841 10.2985 70.6823 10.2272C70.5805 10.1564 70.5199 10.0619 70.5479 10.0183C70.6102 9.92046 69.1914 8.56596 69.0267 8.56596C68.9615 8.56596 68.8465 8.48307 68.771 8.38138C68.6813 8.26202 68.524 8.19736 68.321 8.19736C68.1488 8.19736 68.0081 8.15591 68.0081 8.10507C68.0081 8.05478 67.9269 8.01333 67.828 8.01333C67.7285 8.01333 67.6261 7.95917 67.5998 7.89341C67.5735 7.8271 67.3716 7.76354 67.1457 7.75083C66.9221 7.73812 66.6631 7.68838 66.5698 7.64031C66.3497 7.52646 63.7853 7.52591 63.667 7.63975ZM11.8204 7.84754C11.7467 7.92602 11.7192 14.5968 11.7724 19.7335C11.7724 19.7717 12.652 19.8026 13.7271 19.8026H15.6807V13.7695V7.73702L13.7986 7.74144C12.5565 7.7442 11.8833 7.78067 11.8204 7.84754ZM46.7535 10.7765C46.7535 10.8268 46.9062 10.8682 47.0926 10.8682C47.2945 10.8682 47.4077 10.9058 47.3728 10.9605C47.3385 11.0141 47.4323 11.0528 47.5958 11.0528C47.8715 11.0528 48.564 11.5905 48.564 11.8044C48.564 11.8525 48.6069 11.8668 48.6596 11.8353C48.7139 11.8033 48.7551 11.8806 48.7551 12.0144C48.7551 12.1437 48.7979 12.2498 48.85 12.2498C48.9026 12.2498 48.9455 12.3327 48.9455 12.4344C48.9455 12.5355 48.9884 12.6184 49.041 12.6184C49.2446 12.6184 49.1577 14.9063 48.9455 15.1263C48.8408 15.2351 48.7551 15.3888 48.7545 15.4678C48.7545 15.6269 48.3525 16.1171 48.2198 16.1204C48.1735 16.1215 48.0282 16.2033 47.8972 16.3028C47.7663 16.4017 47.565 16.4835 47.45 16.4846C47.3351 16.4857 47.2144 16.5283 47.1824 16.5791C47.1498 16.6294 46.8066 16.6709 46.4195 16.6709C46.0329 16.6709 45.6898 16.6294 45.6572 16.5791C45.6246 16.5283 45.5165 16.4868 45.4164 16.4868C44.9921 16.4868 44.0879 15.7999 44.0822 15.4739C44.081 15.3976 43.9964 15.2318 43.894 15.1053C43.6853 14.8477 43.6001 12.6184 43.7985 12.6184C43.8511 12.6184 43.894 12.5554 43.894 12.4791C43.894 12.0321 44.8296 11.0539 45.258 11.0528C45.4118 11.0528 45.5005 11.0136 45.4667 10.9605C45.4313 10.9058 45.5451 10.8682 45.7469 10.8682C45.9334 10.8682 46.0861 10.8268 46.0861 10.7765C46.0861 10.7256 46.2359 10.6842 46.4195 10.6842C46.6031 10.6842 46.7535 10.7256 46.7535 10.7765ZM66.4103 10.8682C66.4755 10.9699 66.5847 11.0528 66.6522 11.0528C66.8249 11.0528 67.4362 11.6613 67.4362 11.8326C67.4362 11.9099 67.4746 11.9735 67.5209 11.9735C67.5672 11.9735 67.6255 12.0774 67.6501 12.2039L67.6959 12.4344H65.0286C62.1326 12.4344 62.2813 12.4631 62.7422 11.9906C62.808 11.9232 62.8612 11.8116 62.8612 11.7419C62.8612 11.6723 62.947 11.5579 63.0516 11.4872C63.1557 11.4164 63.2129 11.3313 63.1786 11.2976C63.1437 11.2645 63.1711 11.2368 63.2392 11.2368C63.3072 11.2368 63.4331 11.1644 63.5188 11.0755C63.8385 10.7444 64.049 10.6953 65.1722 10.6897C66.1913 10.6848 66.3016 10.7008 66.4103 10.8682Z" fill="#747474"/>
<path fill-rule="evenodd" clip-rule="evenodd" d="M86.2112 0.0917371C86.2112 0.142579 86.0825 0.184026 85.9252 0.184026C85.768 0.184026 85.6393 0.225474 85.6393 0.276316C85.6393 0.326605 85.5558 0.368053 85.454 0.368053C85.3522 0.368053 85.2424 0.4095 85.2104 0.460342C85.1778 0.511184 85.0285 0.552632 84.8787 0.552632C84.6024 0.552632 84.0203 0.817342 84.0191 0.943895C84.0191 0.982026 83.9322 1.01297 83.827 1.01297C83.5999 1.01297 83.2722 1.17932 83.0555 1.40424C82.9703 1.49321 82.8399 1.56561 82.7655 1.56561C82.6918 1.56561 82.5694 1.6485 82.4939 1.74963C82.4184 1.85132 82.28 1.93421 82.1868 1.93421C82.0936 1.93421 82.0169 1.97566 82.0169 2.02595C82.0169 2.07679 81.9746 2.11824 81.9226 2.11824C81.7104 2.11824 80.3968 3.34232 80.3968 3.54016C80.3968 3.62084 80.3162 3.68384 80.2127 3.68384C80.1114 3.68384 80.0011 3.76674 79.9679 3.86842C79.9347 3.96955 79.8672 4.05245 79.8186 4.05245C79.7694 4.05245 79.7294 4.11434 79.7294 4.19061C79.7294 4.26632 79.694 4.32876 79.6505 4.32876C79.607 4.32876 79.5104 4.44261 79.436 4.58187C79.3617 4.72113 79.2256 4.91566 79.1341 5.01403C79.042 5.11184 78.9671 5.24668 78.9671 5.313C78.9671 5.37987 78.9242 5.43403 78.8716 5.43403C78.8195 5.43403 78.7767 5.49758 78.7767 5.5755C78.7767 5.72913 78.5433 6.11155 78.2768 6.39561C78.1847 6.49342 78.1093 6.62826 78.1093 6.69458C78.1093 6.76145 78.0664 6.81561 78.0138 6.81561C77.9617 6.81561 77.9188 6.87971 77.9188 6.95763C77.9188 7.03555 77.833 7.18863 77.7278 7.2975C77.6232 7.40637 77.5374 7.55116 77.5374 7.61968C77.5374 7.68821 77.4516 7.83355 77.3469 7.94187C77.2417 8.05074 77.1559 8.21542 77.1559 8.30771C77.1559 8.39945 77.0273 8.60503 76.87 8.76418C76.6161 9.02116 76.5514 9.13611 76.5657 9.30466C76.568 9.33118 76.4233 9.51742 76.2438 9.71803C76.0642 9.91919 75.9172 10.1308 75.9172 10.1889C75.9172 10.3635 75.6644 10.778 75.5981 10.7133C75.5638 10.6802 75.5358 10.7448 75.5358 10.857C75.5358 10.9686 75.45 11.1493 75.3453 11.2577C75.2401 11.3665 75.1543 11.5102 75.1543 11.5765C75.1543 11.6428 75.1166 11.697 75.0703 11.697C75.0239 11.697 74.961 11.7699 74.9301 11.8584C74.8644 12.0468 74.6922 12.3093 74.4778 12.5464C74.3943 12.6392 74.269 12.8796 74.2004 13.0813C74.1318 13.2825 74.0397 13.4472 73.9957 13.4472C73.9517 13.4472 73.9156 13.5146 73.9156 13.5975C73.9156 13.6804 73.8401 13.8152 73.7486 13.8981C73.5599 14.0678 73.3437 14.4137 73.3437 14.5464C73.3437 14.595 73.2316 14.7514 73.095 14.8929C72.9583 15.0349 72.761 15.3272 72.6558 15.5428C72.5505 15.7577 72.4264 15.934 72.3801 15.934C72.3332 15.934 72.2949 16.049 72.2949 16.1899C72.2949 16.3402 72.2166 16.501 72.1045 16.5789C71.9998 16.6519 71.914 16.7646 71.914 16.8293C71.914 16.8939 71.8711 16.947 71.8185 16.947C71.7659 16.947 71.723 17.0299 71.723 17.1316C71.723 17.2327 71.6841 17.3156 71.6367 17.3156C71.5886 17.3156 71.4577 17.4985 71.3456 17.7229C71.2335 17.9467 71.0796 18.1794 71.0036 18.2407C70.9275 18.3015 70.8652 18.4292 70.8652 18.5242C70.8652 18.6193 70.8223 18.6972 70.7703 18.6972C70.7177 18.6972 70.6748 18.7646 70.6748 18.8475C70.6748 18.9304 70.5998 19.0652 70.5078 19.1481C70.2933 19.341 70.1029 19.6693 70.1029 19.8472C70.1029 19.924 70.06 19.9865 70.0074 19.9865C69.9553 19.9865 69.9124 20.0489 69.9124 20.1246C69.9124 20.2009 69.8695 20.2628 69.8169 20.2628C69.7643 20.2628 69.7214 20.3269 69.7214 20.4048C69.7214 20.4833 69.678 20.5971 69.6242 20.6585C69.1581 21.1918 69.0546 21.3465 69.0546 21.509C69.0546 21.6118 68.9688 21.756 68.8636 21.8289C68.7589 21.9019 68.6732 22.0146 68.6732 22.0793C68.6732 22.1439 68.6303 22.197 68.5776 22.197C68.5256 22.197 68.4827 22.2611 68.4827 22.339C68.4827 22.4175 68.3969 22.57 68.2917 22.6789C68.1871 22.7878 68.1013 22.9524 68.1013 23.0447C68.1013 23.2133 68.0727 23.2824 67.781 23.8234C67.5986 24.1627 67.5523 25.7891 67.7255 25.7891C67.781 25.7891 67.7999 25.8306 67.7679 25.8814C67.7353 25.9322 67.7541 25.9737 67.8096 25.9737C67.8651 25.9737 67.9108 26.077 67.9108 26.2036C67.9108 26.3307 67.9537 26.434 68.0058 26.434C68.0584 26.434 68.1013 26.549 68.1013 26.6899C68.1013 26.8402 68.1802 27.001 68.2917 27.0789C68.3969 27.1519 68.4827 27.2536 68.4827 27.3055C68.4827 27.4581 69.3651 28.1842 69.551 28.1842C69.6448 28.1842 69.7214 28.2257 69.7214 28.2759C69.7214 28.3268 69.8072 28.3682 69.9124 28.3682C70.0171 28.3682 70.1029 28.4053 70.1029 28.4506C70.1029 28.6551 72.8376 28.6722 105.321 28.6761C137.473 28.6794 141.112 28.6562 141.112 28.4478C141.112 28.4042 141.262 28.3682 141.446 28.3682C141.629 28.3682 141.779 28.3268 141.779 28.2759C141.779 28.2257 141.951 28.1842 142.162 28.1842C142.372 28.1842 142.618 28.1477 142.71 28.1035C143.446 27.7449 143.727 27.6316 143.878 27.6316C143.974 27.6316 144.131 27.5382 144.227 27.4243C144.322 27.3099 144.572 27.1591 144.781 27.0883C144.991 27.0171 145.232 26.8828 145.317 26.7888C145.402 26.6949 145.524 26.6181 145.588 26.6181C145.653 26.6181 145.826 26.4937 145.973 26.3417C146.12 26.1898 146.284 26.0654 146.339 26.0654C146.46 26.0654 147.784 24.7949 147.784 24.6783C147.784 24.5899 147.986 24.3329 148.313 24.0047C148.42 23.8969 148.591 23.6653 148.694 23.4896C148.796 23.3139 148.955 23.0884 149.047 22.9884C149.139 22.8889 149.213 22.7319 149.213 22.6402C149.213 22.5485 149.256 22.4733 149.309 22.4733C149.362 22.4733 149.404 22.3904 149.404 22.2893C149.404 22.1882 149.447 22.1053 149.499 22.1053C149.552 22.1053 149.595 22.0412 149.595 21.9627C149.595 21.8842 149.703 21.7162 149.835 21.5886C149.967 21.4609 150.046 21.3073 150.01 21.247C149.975 21.1873 149.981 21.1697 150.026 21.2083C150.099 21.273 150.469 20.7159 150.608 20.3319C150.64 20.2434 150.703 20.1711 150.75 20.1711C150.796 20.1711 150.834 20.1163 150.834 20.05C150.834 19.9837 150.92 19.8406 151.025 19.7317C151.129 19.6228 151.215 19.4493 151.215 19.346C151.215 19.2421 151.258 19.1575 151.311 19.1575C151.363 19.1575 151.406 19.0956 151.406 19.0194C151.406 18.9437 151.449 18.8812 151.501 18.8812C151.554 18.8812 151.596 18.8193 151.596 18.7431C151.596 18.6673 151.639 18.6049 151.692 18.6049C151.744 18.6049 151.787 18.5397 151.787 18.4601C151.787 18.3805 151.841 18.2578 151.906 18.1871C151.972 18.1164 152.082 17.9937 152.151 17.9141C152.331 17.7085 152.836 16.7652 152.836 16.6359C152.836 16.5762 152.922 16.4673 153.026 16.3944C153.131 16.3214 153.217 16.1882 153.217 16.0982C153.217 16.0075 153.26 15.934 153.312 15.934C153.365 15.934 153.408 15.8544 153.408 15.7577C153.408 15.6605 153.441 15.5671 153.483 15.5505C153.608 15.4997 154.074 14.8658 154.074 14.747C154.074 14.6867 154.16 14.548 154.265 14.4392C154.37 14.3303 154.456 14.1546 154.456 14.049C154.456 13.9429 154.542 13.7964 154.646 13.7235C154.752 13.6506 154.837 13.5378 154.837 13.4732C154.837 13.4079 154.88 13.3549 154.932 13.3549C154.985 13.3549 155.028 13.272 155.028 13.1709C155.028 13.0697 155.071 12.9868 155.123 12.9868C155.175 12.9868 155.218 12.9189 155.218 12.8365C155.218 12.7536 155.297 12.6188 155.394 12.537C155.597 12.3646 156.076 11.5605 156.076 11.3919C156.076 11.3289 156.162 11.2173 156.267 11.1444C156.372 11.0714 156.458 10.9382 156.458 10.8482C156.458 10.7575 156.5 10.684 156.553 10.684C156.605 10.684 156.648 10.6011 156.648 10.5C156.648 10.3983 156.684 10.3154 156.729 10.3154C156.773 10.3154 156.931 10.0982 157.081 9.83187C157.23 9.56605 157.43 9.26819 157.525 9.16982C157.619 9.072 157.697 8.90455 157.697 8.799C157.697 8.6929 157.783 8.54645 157.887 8.4735C157.992 8.40055 158.078 8.28782 158.078 8.22316C158.078 8.15795 158.121 8.1049 158.173 8.1049C158.226 8.1049 158.269 8.00597 158.269 7.8844C158.269 7.76337 158.397 7.53071 158.555 7.36824C158.712 7.20576 158.841 7.02892 158.841 6.97587C158.841 6.92282 158.948 6.74321 159.078 6.57742C159.21 6.41108 159.317 6.22926 159.317 6.1729C159.317 6.11708 159.403 5.98224 159.507 5.87337C159.613 5.7645 159.698 5.62137 159.698 5.55505C159.698 5.48818 159.741 5.43403 159.793 5.43403C159.846 5.43403 159.889 5.3119 159.889 5.16324C159.889 5.01403 159.932 4.86647 159.984 4.83553C160.036 4.80403 160.079 4.63824 160.079 4.46692C160.079 4.29561 160.122 4.12982 160.175 4.09832C160.227 4.06737 160.27 3.86013 160.27 3.63797C160.27 3.41582 160.227 3.20858 160.175 3.17763C160.122 3.14613 160.079 2.95713 160.079 2.75763C160.079 2.55813 160.036 2.39455 159.984 2.39455C159.932 2.39455 159.889 2.26634 159.889 2.1094C159.889 1.911 159.802 1.74521 159.603 1.56561C159.446 1.42358 159.317 1.27879 159.317 1.24287C159.317 1.13842 158.678 0.552632 158.564 0.552632C158.507 0.552632 158.459 0.518921 158.459 0.477474C158.459 0.436027 158.284 0.311684 158.069 0.201158L157.678 0H121.945C98.1859 0 86.2112 0.0309476 86.2112 0.0917371ZM124.217 6.58516C124.25 8.58016 124.064 8.37182 125.839 8.40221L127.339 8.42763L127.366 9.64784L127.392 10.8681H125.931C124.073 10.8681 124.24 10.6354 124.248 13.2123C124.26 16.9691 124.388 17.1377 126.685 16.4402C126.912 16.3717 126.993 16.5508 127.383 17.9815C127.675 19.052 127.664 19.0724 126.574 19.4427C124.233 20.2379 121.659 19.5565 120.821 17.9196C120.432 17.1609 120.4 16.8901 120.342 13.8617L120.286 10.9145L119.523 10.8681L118.761 10.8222L118.734 9.65171L118.707 8.48124L119.497 8.45416L120.286 8.42763L120.312 6.91453C120.346 4.98529 120.152 5.14832 122.372 5.17871L124.193 5.20358L124.217 6.58516ZM84.5321 7.82637C85.3053 7.94905 86.2094 8.37845 86.7802 8.89461L87.2594 9.32787V8.76971C87.2594 7.85897 87.113 7.92087 89.2713 7.92087H91.1671V15.8417V23.7632H89.2713C87.63 23.7632 87.3675 23.7433 87.3172 23.6173C87.2857 23.5371 87.2594 22.2904 87.2594 20.8464V18.2208L86.8151 18.5994C83.9722 21.0171 79.3331 19.4908 78.2946 15.7959C76.9724 11.0902 80.0783 7.12176 84.5321 7.82637ZM114.328 7.98166C119.84 9.17755 120.75 16.7901 115.651 19.052C111.549 20.8718 106.916 19.0785 105.93 15.2891C104.699 10.5558 108.989 6.82279 114.328 7.98166ZM135.536 7.98221C138.147 8.61166 139.672 10.6989 139.716 13.7003L139.73 14.6906L135.64 14.7144C131.137 14.7409 131.21 14.7315 131.443 15.2703C132.195 17.0094 134.451 17.4322 136.365 16.1932C137.073 15.7345 136.997 15.7113 138.026 16.7027C139.12 17.7561 139.115 17.7063 138.192 18.3999C134.461 21.2023 128.492 19.5217 127.472 15.3814C126.29 10.5823 130.458 6.75703 135.536 7.98221ZM147.55 8.085C148.634 8.39061 149.124 8.59011 149.571 8.90732L149.88 9.12726L149.387 10.0209C149.116 10.5122 148.832 11.0316 148.757 11.1753C148.599 11.4765 148.635 11.482 147.45 10.9808C145.043 9.96284 142.844 10.2585 143.73 11.4809C143.901 11.7163 144.658 12.0197 146.354 12.5331C148.742 13.2549 149.593 13.9733 149.888 15.5151C150.608 19.2802 144.633 21.1514 140.135 18.569C139.35 18.118 139.351 18.1363 140.016 16.8536C140.614 15.7025 140.583 15.7163 141.461 16.2043C143.404 17.2836 145.978 17.4626 146.219 16.5347C146.371 15.9501 145.877 15.6395 143.716 14.9631C140.83 14.0589 140.033 13.2924 140.035 11.4207C140.037 8.48013 143.501 6.94271 147.55 8.085ZM96.7144 11.4898L96.743 15.0592L97.0078 15.4941C97.8587 16.8928 99.9919 16.6795 100.771 15.1183L101.03 14.5983L101.062 11.2599L101.093 7.92087H103.041H104.988V13.7136C104.988 18.9111 104.972 19.5123 104.837 19.5626C104.754 19.593 103.943 19.6184 103.034 19.6184C100.948 19.6184 101.08 19.6742 101.08 18.7851C101.08 17.9169 100.998 17.8406 100.591 18.3297C98.7903 20.4949 94.6379 20.1047 93.3437 17.6494C92.829 16.6723 92.7913 16.2789 92.7896 11.9042L92.7878 7.92087H94.7363H96.6852L96.7144 11.4898ZM132.679 10.5978C131.959 10.9449 131.311 11.7755 131.265 12.4088L131.247 12.6641L133.606 12.689L135.965 12.7133V12.3867C135.965 10.9664 134.063 9.93079 132.679 10.5978ZM83.652 10.9172C81.4096 11.8584 81.3501 15.75 83.565 16.6265C85.8371 17.5262 87.8902 15.3002 87.1588 12.7304C86.7253 11.2063 85.0399 10.3348 83.652 10.9172ZM111.326 10.9554C110.269 11.4157 109.555 12.7746 109.686 14.0799C110.055 17.7627 114.731 17.7223 115.064 14.0335C115.269 11.7738 113.255 10.1154 111.326 10.9554Z" fill="#DC044C"/>
</svg>
