<svg width="18" height="18" viewBox="0 0 18 18" fill="none" xmlns="http://www.w3.org/2000/svg">
<g clip-path="url(#clip0_8224_29641)">
<path d="M2.04053 3.74999C2.04221 3.28586 2.2282 2.84142 2.55758 2.51442C2.88695 2.18742 3.33274 2.00466 3.79686 2.00635L14.2968 2.04444C14.7609 2.04612 15.2054 2.23211 15.5324 2.56149C15.8594 2.89087 16.0421 3.33665 16.0404 3.80078L16.0023 14.3007C16.0007 14.7648 15.8147 15.2093 15.4853 15.5363C15.1559 15.8633 14.7101 16.046 14.246 16.0443L3.74608 16.0063C3.28195 16.0046 2.8375 15.8186 2.51051 15.4892C2.18351 15.1598 2.00075 14.714 2.00244 14.2499L2.04053 3.74999ZM15.1591 5.54759L11.6591 5.53489L11.6496 8.15988L15.1496 8.17257L15.1591 5.54759ZM15.1464 9.04757L11.6464 9.03487L11.6369 11.6599L15.1369 11.6726L15.1464 9.04757ZM15.1337 12.5475L11.6337 12.5348L11.6242 15.1598L14.2492 15.1694C14.4812 15.1702 14.7041 15.0788 14.8688 14.9153C15.0335 14.7518 15.1265 14.5296 15.1273 14.2975L15.1337 12.5475ZM10.7492 15.1567L10.7587 12.5317L7.25875 12.519L7.24923 15.144L10.7492 15.1567ZM6.37423 15.1408L6.38376 12.5158L2.88378 12.5031L2.87743 14.2531C2.87659 14.4852 2.96797 14.708 3.13146 14.8727C3.29496 15.0374 3.51719 15.1304 3.74925 15.1313L6.37423 15.1408ZM2.88695 11.6281L6.38693 11.6408L6.39645 9.01583L2.89648 9.00313L2.88695 11.6281ZM2.89965 8.12813L6.39963 8.14083L6.40915 5.51585L2.90917 5.50315L2.89965 8.12813ZM7.28414 5.51902L7.27462 8.14401L10.7746 8.1567L10.7841 5.53172L7.28414 5.51902ZM10.7714 9.0317L7.27145 9.019L7.26192 11.644L10.7619 11.6567L10.7714 9.0317Z" fill="#8C8C8C"/>
</g>
<defs>
<clipPath id="clip0_8224_29641">
<rect width="14" height="14" fill="white" transform="translate(2.04688 2) rotate(0.207854)"/>
</clipPath>
</defs>
</svg>
